<svg width="21" height="26" viewBox="0 0 21 26" fill="none" xmlns="http://www.w3.org/2000/svg">
<path d="M17.7976 15.6498C17.6682 15.5497 17.5797 15.4396 17.5195 15.3423C17.444 15.2226 17.4131 15.1231 17.4042 15.0898C17.4042 15.0892 17.4037 15.0876 17.4037 15.0871L13.194 5.85992L11.0148 8.06192L9.84717 9.24178L4.82083 14.3212L2.76838 16.3951L0.128174 19.0629C1.65205 18.2006 4.02509 17.2113 3.40171 19.8521C3.40119 19.8542 3.40119 19.8553 3.40067 19.8563C3.38495 19.9236 3.36714 19.9929 3.34724 20.0644L2.37811 23.84H6.96547L7.99378 19.8341L14.1616 19.5287C14.1213 20.2449 13.9982 21.1474 13.6723 21.9488L15.0218 20.5852L16.1658 19.4292L18.3686 17.2034L19.7364 15.8213C18.7091 16.0897 18.125 15.9028 17.7982 15.6498H17.7976ZM8.95505 16.0886L10.4004 10.4555L12.8813 15.8943L8.95505 16.0891V16.0886Z" fill="#E5E5E5"/>
<path d="M17.1445 0.5L5.29443 12.4739L7.39664 4.28256C7.45951 4.28309 7.52132 4.28256 7.58314 4.28203C9.25684 4.26191 10.7755 3.92738 12.0956 3.45363C12.1328 3.4404 12.1705 3.42664 12.2072 3.4134C14.6247 2.5252 16.3618 1.1823 17.1445 0.500529V0.5Z" fill="#FF4C00"/>
<path d="M20.9994 22.9709C19.2618 22.6793 17.6457 22.8402 16.2229 23.2197C14.1836 23.7628 12.5419 24.7532 11.512 25.5L17.5891 19.3593L18.7956 18.1403L19.8035 17.1219C19.6007 17.7036 19.386 18.5225 19.4441 19.2678C19.4567 19.4266 19.4813 19.5817 19.5216 19.7304C19.5216 19.7304 19.5218 19.7308 19.5222 19.7315L20.9999 22.9709H20.9994Z" fill="#FF4C00"/>
</svg>
