<svg width="232" height="69" viewBox="0 0 232 69" fill="none" xmlns="http://www.w3.org/2000/svg">
<g clip-path="url(#clip0_13_71)">
<path d="M223.163 41.8134C222.806 41.5373 222.562 41.2335 222.395 40.9646C222.187 40.6345 222.102 40.3598 222.077 40.2678C222.077 40.2663 222.076 40.2619 222.076 40.2605L210.457 14.7934L204.443 20.8709L201.22 24.1274L187.347 38.1465L181.682 43.8704L174.396 51.2336C178.601 48.8537 185.151 46.1232 183.43 53.4118C183.429 53.4177 183.429 53.4206 183.428 53.4235C183.384 53.609 183.335 53.8004 183.28 53.9976L180.605 64.4185H193.266L196.105 53.3621L213.128 52.5192C213.016 54.4958 212.677 56.9867 211.777 59.1986L215.502 55.4352L218.659 52.2445L224.739 46.1013L228.514 42.2868C225.679 43.0275 224.067 42.5118 223.165 41.8134H223.163ZM198.758 43.0246L202.747 27.4773L209.594 42.4884L198.758 43.026V43.0246Z" fill="white"/>
<path d="M221.36 0L188.654 33.0478L194.456 10.4398C194.63 10.4413 194.801 10.4398 194.971 10.4384C199.591 10.3829 203.782 9.45956 207.425 8.15202C207.528 8.1155 207.632 8.07751 207.733 8.04099C214.406 5.58954 219.2 1.88315 221.36 0.00146094V0Z" fill="#FF4C00"/>
<path d="M232 62.0197C227.204 61.2147 222.744 61.6588 218.817 62.7063C213.188 64.2052 208.657 66.9386 205.815 69L222.588 52.0517L225.917 48.6872L228.699 45.8763C228.14 47.4819 227.547 49.742 227.707 51.7989C227.742 52.2372 227.81 52.6653 227.921 53.0758C227.921 53.0758 227.922 53.0768 227.923 53.0787L232.001 62.0197H232Z" fill="#FF4C00"/>
<path d="M16.0226 47.0801L15.6265 47.0348V51.7873L16.0226 51.7434H19.7803L20.1765 51.7873V47.0348L19.7803 47.0801H16.0226Z" fill="#FF4C00"/>
<path d="M8.9887 47.0801L8.59399 47.0348V51.7873L8.9887 51.7434H12.7478L13.144 51.7873V47.0348L12.7478 47.0801H8.9887Z" fill="#FF4C00"/>
<path d="M76.0475 21.8278V34.332H67.4318V34.3539H65.7171V24.2486L66.0684 22.8052L61.0572 18.6079H51.5625L46.5512 22.8052L46.9026 24.2486V34.3539H41.7598V25.7811L42.1328 24.3816L37.1649 20.0952H21.8016L22.5491 21.3165V36.5512H5.8021V28.0894H9.16509L10.7251 29.2669V20.8052L9.14195 21.8717H6.67971L5.53607 21.2946L0 24.7819V38.3963L3.97747 43.4599L5.40594 43.1049H23.3631L24.7916 43.4818L28.9671 38.3744V30.0456H28.9454V26.2925H35.3851L35.4285 40.7952H61.0558L64.9898 37.4642L67.429 40.015V40.7966H78.9464L82.4193 37.0435V20.0543H75.1656L76.0446 21.8308L76.0475 21.8278ZM59.3208 35.1092H53.2989V24.2939H59.3208V35.1092Z" fill="#FF4C00"/>
<path d="M80.8157 16.0542L81.2119 16.0981V11.3456L80.8157 11.3909H77.058L76.6619 11.3456V16.0981L77.058 16.0542H80.8157Z" fill="#FF4C00"/>
<path d="M92.4649 7.97087L92.5964 8.0819V6.19291L92.3998 6.21628H88.0262V4.10669L92.5964 4.08332V2.24108L92.4649 2.35211H87.805L87.4985 2.26299L86.2016 3.83934V5.03877L86.8608 6.21628H85.4324V8.0147L85.4757 7.97087H92.4649Z" fill="#FF4C00"/>
<path d="M92.5965 12.3011L93.3888 10.5027H85.2344L86.0036 12.3011V38.9953L85.2344 40.7952H93.3888L92.5965 38.9953V12.3011Z" fill="#FF4C00"/>
<path d="M119.191 44.8595L118.796 44.8142V49.5666L119.191 49.5228H122.95L123.346 49.5666V44.8142L122.95 44.8595H119.191Z" fill="white"/>
<path d="M137.193 20.0513H129.939L130.818 21.8278V34.332H111.631V20.0513H104.377L105.257 21.8278V35.2422L104.861 37.0859L108.795 40.7952H133.72L137.193 37.042V20.0513Z" fill="white"/>
<path d="M162.116 13.9446L170.798 13.1455L171.238 13.2565L171.018 11.1236L170.622 11.3237L161.941 12.1228L161.523 12.0118L161.743 14.1667L162.116 13.9446Z" fill="white"/>
<path d="M173.369 26.4254V19.4524L171.919 20.0075H161.172L159.787 19.6525L155.588 24.6708V30.0675L158.996 34.3539H152.688H152.313H148.995V21.8278L149.874 20.0513H141.478L142.621 21.7621V42.6827L138.533 47.0801L136.62 48.0341L142.138 50.9881L150.182 43.571L148.995 41.194V37.6191L152.029 40.7952H152.688V40.7718H171.919L173.369 41.327V34.3539L166.182 34.3101H161.677V26.4707L173.369 26.4254Z" fill="white"/>
<path d="M4.17252 54.7383C4.51085 54.7383 4.77977 54.4549 4.77977 54.1131C4.77977 53.7712 4.51085 53.4878 4.17252 53.4878C3.8342 53.4878 3.55371 53.7712 3.55371 54.1131C3.55371 54.4549 3.8342 54.7383 4.17252 54.7383Z" fill="white"/>
<path d="M2.09635 54.7383C2.43468 54.7383 2.7036 54.4549 2.7036 54.1131C2.7036 53.7712 2.43468 53.4878 2.09635 53.4878C1.75803 53.4878 1.47754 53.7712 1.47754 54.1131C1.47754 54.4549 1.75803 54.7383 2.09635 54.7383Z" fill="white"/>
<path d="M8.24406 62.6698C7.90573 62.6698 7.62524 62.9532 7.62524 63.295C7.62524 63.6369 7.90573 63.9203 8.24406 63.9203C8.58238 63.9203 8.8513 63.6369 8.8513 63.295C8.8513 62.9532 8.58238 62.6698 8.24406 62.6698Z" fill="white"/>
<path d="M9.9589 62.6698C9.62058 62.6698 9.34009 62.9532 9.34009 63.295C9.34009 63.6369 9.62058 63.9203 9.9589 63.9203C10.2972 63.9203 10.5661 63.6369 10.5661 63.295C10.5661 62.9532 10.2972 62.6698 9.9589 62.6698Z" fill="white"/>
<path d="M13.3753 61.0671H9.58436V56.8012H8.53469V61.0671H4.70904V55.7289H3.65937V56.3176H2.50416C1.19713 56.3176 0.147461 57.3899 0.147461 58.7106V60.3016C0.147461 60.7968 0.543617 61.1971 1.03375 61.1971H3.63479L3.69262 61.409C3.86757 61.8443 4.17119 62.0693 4.53265 62.0693H13.316C13.9233 62.0693 14.412 61.5741 14.412 60.9619V56.8012H13.3739V61.0671H13.3753ZM3.65937 60.1482H1.19858V58.6274C1.19858 57.9319 1.74654 57.3783 2.42319 57.3783H3.65937V60.1482Z" fill="white"/>
<path d="M12.9677 62.6698C12.6294 62.6698 12.3489 62.9532 12.3489 63.295C12.3489 63.6369 12.6294 63.9203 12.9677 63.9203C13.306 63.9203 13.5865 63.6369 13.5865 63.295C13.5865 62.9532 13.306 62.6698 12.9677 62.6698Z" fill="white"/>
<path d="M30.4058 61.0671H25.8095L27.8857 58.7106L27.7108 57.7318L26.7652 57.295C25.4466 56.6829 23.768 56.6829 22.4494 57.295L21.5168 57.7318L21.3303 58.7106L23.4297 61.0671H18.4835V57.3549H17.4107V62.3045C17.4107 62.6464 17.2936 62.9298 17.0492 63.1767C16.8049 63.4236 16.5244 63.5419 16.1861 63.5419H15.1133V64.4024H16.4087C16.9798 64.4024 17.47 64.1906 17.8777 63.7772C18.2854 63.3652 18.4849 62.8699 18.4849 62.2914V62.0679H23.7347C24.0499 62.0679 24.329 61.9378 24.4577 61.8093L24.6326 61.6676L24.8075 61.8093C24.9247 61.9393 25.2153 62.0679 25.5305 62.0679H30.3595C30.9668 62.0679 31.4554 61.5726 31.4554 60.9605V54.6434H30.4058V61.0671ZM24.621 60.8436L22.4523 58.4155L22.8022 58.2504C23.875 57.7435 25.357 57.7435 26.4298 58.2504L26.7681 58.4155L24.6225 60.8436H24.621Z" fill="white"/>
<path d="M37.3356 62.6698C36.9973 62.6698 36.7168 62.9532 36.7168 63.295C36.7168 63.6369 36.9973 63.9203 37.3356 63.9203C37.6739 63.9203 37.9544 63.6369 37.9544 63.295C37.9544 62.9532 37.6739 62.6698 37.3356 62.6698Z" fill="white"/>
<path d="M37.7432 61.0671H33.9523V54.6434H32.9026V60.9605C32.9026 61.5741 33.3927 62.0679 33.9985 62.0679H37.6854C38.2926 62.0679 38.7813 61.5726 38.7813 60.9605V56.7997H37.7432V61.0657V61.0671Z" fill="white"/>
<path d="M71.5004 54.0386C71.6754 53.7668 71.6985 53.4732 71.5698 53.2131C71.4296 52.9063 71.1737 52.7529 70.8816 52.7895C70.6011 52.8245 70.3683 53.0612 70.3105 53.3548C70.2642 53.6383 70.3799 53.9202 70.6372 54.1321C70.416 54.2387 70.1471 54.3088 69.9028 54.2971L69.8796 54.7807H69.9606C70.5679 54.7807 71.2084 54.4622 71.5004 54.0386ZM70.7775 53.4498C70.8006 53.3432 70.883 53.273 70.9524 53.273H70.964C71.045 53.273 71.1043 53.3548 71.139 53.4264C71.1621 53.4615 71.2199 53.5798 71.1043 53.7683C71.0811 53.7917 71.0696 53.815 71.0464 53.8384C70.8599 53.7201 70.7544 53.5798 70.7775 53.4498Z" fill="white"/>
<path d="M69.6686 62.6698C69.3303 62.6698 69.0498 62.9532 69.0498 63.295C69.0498 63.6369 69.3303 63.9203 69.6686 63.9203C70.0069 63.9203 70.2874 63.6369 70.2874 63.295C70.2874 62.9532 70.0069 62.6698 69.6686 62.6698Z" fill="white"/>
<path d="M71.3024 62.6698C70.9641 62.6698 70.6836 62.9532 70.6836 63.295C70.6836 63.6369 70.9641 63.9203 71.3024 63.9203C71.6407 63.9203 71.9212 63.6369 71.9212 63.295C71.9212 62.9532 71.6407 62.6698 71.3024 62.6698Z" fill="white"/>
<path d="M71.0334 61.0671H67.5808L66.5774 58.3805C66.1928 57.4732 65.3065 56.8363 64.28 56.8363C63.9417 56.8363 63.6149 56.9064 63.1595 57.108L62.1676 57.6266L62.6346 58.5455L63.6265 58.0386C63.8954 57.9203 64.0819 57.8735 64.28 57.8735C64.8858 57.8735 65.3991 58.2504 65.6217 58.7808L66.4502 61.0671H59.1488V60.5134C59.1488 58.9225 57.8663 57.6383 56.2918 57.6383H54.6942L57.5164 55.0568L56.8282 54.2913L53.3409 57.5083V58.639H56.2918C57.3183 58.639 58.1468 59.4762 58.1468 60.5134V61.0671H51.9182L50.8916 58.7924C50.4246 57.7902 49.5499 57.2716 48.4193 57.3081C47.6024 57.3432 46.9258 57.7566 46.5065 58.4988C46.0987 59.2293 46.0742 59.9963 46.0872 60.2081C46.0872 60.4433 46.1334 60.6683 46.1334 60.6084C46.2621 61.0803 46.6236 61.1036 46.693 61.1036H47.9523C48.3716 61.1036 48.8733 61.5872 48.8733 61.9992C48.8733 62.4112 48.3716 62.9064 47.9523 62.9181H43.8577C43.5772 62.9064 43.2866 62.4696 43.2273 62.0459C43.1579 61.4455 43.531 60.3717 44.5575 59.9831L44.3016 58.9692C43.6365 59.2044 43.0885 59.6296 42.7271 60.2066C42.3772 60.772 42.1328 61.539 42.2138 62.1745C42.2716 62.6464 42.5406 63.2351 42.8326 63.5186C43.0885 63.7772 43.4514 63.9422 43.836 63.9539H47.9422C48.9224 63.9422 49.8897 62.9999 49.8897 61.9977C49.8897 60.9955 48.9441 60.0649 47.9537 60.0649H47.0906L47.1484 59.7347C47.1947 59.4762 47.3118 59.0978 47.5446 58.8041C47.7658 58.509 48.0694 58.3688 48.454 58.3439C49.0844 58.3206 49.6786 58.6858 49.9822 59.2746L51.0435 61.5492C51.1461 61.7961 51.3095 62.0167 51.6391 62.0606V62.0679H70.9785C71.5857 62.0679 72.0744 61.5726 72.0744 60.9605V56.7997H71.0363V61.0657L71.0334 61.0671Z" fill="white"/>
<path d="M78.6154 58.1686C78.9537 58.1686 79.2226 57.8852 79.2226 57.5433C79.2226 57.2015 78.9537 56.9181 78.6154 56.9181C78.2771 56.9181 77.9966 57.2015 77.9966 57.5433C77.9966 57.8852 78.2771 58.1686 78.6154 58.1686Z" fill="white"/>
<path d="M80.8664 56.8596V61.0321C80.8664 62.0927 80.0263 62.9532 78.9767 62.9532H78.3116C77.2966 62.9532 76.4682 62.1161 76.4682 61.0788V58.5207H75.3838V61.1489C75.3838 62.6931 76.62 63.9539 78.1598 63.9539H79.1747C80.7145 63.9539 81.9623 62.6931 81.9623 61.1372L81.9507 56.8596H80.8664Z" fill="white"/>
<path d="M83.946 53.7595L83.9113 53.7128C83.8651 53.631 83.8304 53.5126 83.8304 53.3592C83.8304 52.9107 84.0993 52.8406 84.2497 52.8406C84.413 52.8406 84.5417 52.9355 84.6111 53.1123L85.0781 52.8888C84.9032 52.5236 84.6342 52.3468 84.2497 52.3468C83.6901 52.3468 83.2694 52.807 83.2694 53.4074C83.2694 53.5725 83.3041 53.7259 83.2925 53.6426L83.3157 53.761H83.0236L82.9426 54.2562H85.1822L85.0767 53.761H83.9446L83.946 53.7595Z" fill="white"/>
<path d="M84.5765 54.6434H83.5269V62.0679H84.5765V54.6434Z" fill="white"/>
<path d="M92.8219 56.4593C93.1603 56.4593 93.4277 56.1759 93.4277 55.834C93.4277 55.4922 93.1588 55.2088 92.8219 55.2088C92.4851 55.2088 92.2031 55.4922 92.2031 55.834C92.2031 56.1759 92.4836 56.4593 92.8219 56.4593Z" fill="white"/>
<path d="M94.5959 56.4593C94.9342 56.4593 95.2031 56.1759 95.2031 55.834C95.2031 55.4922 94.9342 55.2088 94.5959 55.2088C94.2575 55.2088 93.9771 55.4922 93.9771 55.834C93.9771 56.1759 94.2575 56.4593 94.5959 56.4593Z" fill="white"/>
<path d="M108.57 55.9991C108.908 55.9991 109.176 55.7157 109.176 55.3739C109.176 55.032 108.907 54.7486 108.57 54.7486C108.233 54.7486 107.951 55.032 107.951 55.3739C107.951 55.7157 108.232 55.9991 108.57 55.9991Z" fill="white"/>
<path d="M106.588 55.9991C106.926 55.9991 107.195 55.7157 107.195 55.3739C107.195 55.032 106.926 54.7486 106.588 54.7486C106.249 54.7486 105.969 55.032 105.969 55.3739C105.969 55.7157 106.249 55.9991 106.588 55.9991Z" fill="white"/>
<path d="M121.704 62.6698C121.365 62.6698 121.085 62.9532 121.085 63.295C121.085 63.6369 121.365 63.9203 121.704 63.9203C122.042 63.9203 122.323 63.6369 122.323 63.295C122.323 62.9532 122.042 62.6698 121.704 62.6698Z" fill="white"/>
<path d="M123.338 62.6698C122.999 62.6698 122.719 62.9532 122.719 63.295C122.719 63.6369 122.999 63.9203 123.338 63.9203C123.676 63.9203 123.956 63.6369 123.956 63.295C123.956 62.9532 123.676 62.6698 123.338 62.6698Z" fill="white"/>
<path d="M123.069 61.0671H119.324L119.405 60.7253C119.405 60.7837 119.451 60.5485 119.451 60.3016V57.1314H118.367V60.2665C118.367 60.7019 118.017 61.0686 117.573 61.0686H117.002C116.546 61.0686 116.197 60.715 116.197 60.2797V57.1328H115.147V60.2563C115.147 60.7048 114.785 61.07 114.342 61.07H112.954V57.1343H111.869V61.07H108.101V56.8041H107.052V61.07H103.797L102.794 58.3834C102.409 57.4761 101.523 56.8392 100.496 56.8392C100.158 56.8392 99.8312 56.9093 99.3758 57.1109L98.3839 57.6295L98.851 58.5485L99.8428 58.0415C100.112 57.9232 100.298 57.8764 100.496 57.8764C101.102 57.8764 101.615 58.2534 101.838 58.7837L102.666 61.07H95.6094V57.2745H93.4522C92.8811 57.2745 92.391 57.4747 91.9818 57.8867C91.5741 58.2987 91.363 58.8056 91.363 59.3841V60.8816C91.363 61.035 91.4209 61.165 91.5264 61.2702C91.6319 61.3768 91.7592 61.4353 91.911 61.4353H94.5583L94.5236 61.7771C94.512 62.119 94.3718 62.4258 94.0913 62.6961C93.8108 62.9678 93.4725 63.0964 93.0648 63.0964H90.8599C90.4522 63.0964 90.1138 62.9547 89.8218 62.661C89.5297 62.3659 89.3909 62.024 89.3909 61.6121V58.5003H88.3181V61.7289C88.3181 62.3294 88.5278 62.848 88.9601 63.2848C89.3924 63.7202 89.9042 63.9452 90.5114 63.9452H93.4161C94.0219 63.9452 94.5352 63.7216 94.9675 63.2848C95.3058 62.943 95.5154 62.531 95.5863 62.0708H114.308C114.833 62.0708 115.3 61.8589 115.498 61.6471L115.673 61.5054L115.848 61.6471C116.046 61.8589 116.513 62.0708 117.015 62.0708H123.011C123.618 62.0708 124.107 61.5755 124.107 60.9634V56.8027H123.069V61.0686V61.0671ZM94.5366 60.4667H92.3202V59.5711C92.3202 58.829 92.9028 58.2271 93.6388 58.2271H94.5366V60.4667Z" fill="white"/>
<path d="M130.347 64.3791C130.009 64.3791 129.728 64.6625 129.728 65.0043C129.728 65.3462 130.009 65.6296 130.347 65.6296C130.685 65.6296 130.954 65.3462 130.954 65.0043C130.954 64.6625 130.685 64.3791 130.347 64.3791Z" fill="white"/>
<path d="M132.027 64.3791C131.689 64.3791 131.408 64.6625 131.408 65.0043C131.408 65.3462 131.689 65.6296 132.027 65.6296C132.365 65.6296 132.634 65.3462 132.634 65.0043C132.634 64.6625 132.365 64.3791 132.027 64.3791Z" fill="white"/>
<path d="M147.25 54.7617C146.912 54.7617 146.631 55.0335 146.631 55.3753C146.631 55.7172 146.912 56.0006 147.25 56.0006C147.588 56.0006 147.869 55.7172 147.869 55.3753C147.869 55.0335 147.588 54.7617 147.25 54.7617Z" fill="white"/>
<path d="M146.76 61.0671H144.252L144.228 61.0554C143.727 61.0087 143.319 60.6318 143.213 60.1365L143.202 60.1014V58.8757C143.202 57.9217 142.444 57.143 141.487 57.143H140.391C139.447 57.143 138.676 57.9203 138.676 58.8757V61.0671H137.241L136.214 58.7924C135.747 57.7902 134.872 57.2716 133.742 57.3081C132.925 57.3432 132.248 57.7566 131.829 58.4988C131.421 59.2293 131.397 59.9963 131.41 60.2081C131.41 60.4433 131.456 60.6683 131.456 60.6084C131.585 61.0803 131.946 61.1036 132.015 61.1036H133.275C133.694 61.1036 134.196 61.5872 134.196 61.9992C134.196 62.4112 133.694 62.9064 133.275 62.9181H129.18C128.9 62.9064 128.609 62.4696 128.55 62.0459C128.48 61.4455 128.853 60.3717 129.88 59.9831L129.624 58.9692C128.959 59.2044 128.411 59.6296 128.05 60.2066C127.7 60.772 127.455 61.539 127.536 62.1745C127.594 62.6464 127.863 63.2351 128.155 63.5186C128.411 63.7772 128.774 63.9422 129.159 63.9539H133.265C134.245 63.9422 135.212 62.9999 135.212 61.9977C135.212 60.9955 134.267 60.0649 133.276 60.0649H132.413L132.471 59.7347C132.517 59.4762 132.634 59.0978 132.867 58.8041C133.088 58.509 133.392 58.3688 133.777 58.3439C134.407 58.3206 135.001 58.6858 135.305 59.2746L136.366 61.5492C136.473 61.8078 136.649 62.0343 137.008 62.0635V62.0679H141.487C141.931 62.0679 142.35 61.9028 142.665 61.596L142.84 61.4309L143.027 61.5843C143.388 61.8794 143.832 62.0445 144.298 62.0562H144.344C144.351 62.0562 144.36 62.0576 144.369 62.0606V62.0679H146.701C147.307 62.0679 147.797 61.5726 147.797 60.9605V56.7997H146.759V61.0657L146.76 61.0671ZM142.21 60.4302C142.21 60.772 141.93 61.0671 141.58 61.0671H139.667V59.146C139.667 58.5923 140.111 58.1438 140.659 58.1438H141.23C141.766 58.1438 142.21 58.5923 142.21 59.146V60.4302Z" fill="white"/>
<path d="M151.916 54.4432H150.866L150.843 54.4315C150.726 54.3848 150.61 54.2197 150.61 54.0313C150.61 53.7727 150.808 53.5711 151.041 53.5711C151.216 53.5711 151.368 53.6777 151.437 53.8296L151.822 53.5827C151.67 53.2643 151.366 53.0758 151.04 53.0758C150.549 53.0758 150.165 53.4995 150.165 54.0181C150.165 54.1598 150.188 54.3015 150.2 54.3249L150.246 54.4432H149.861L149.779 54.9502H152.018L151.913 54.4432H151.916Z" fill="white"/>
<path d="M150.924 60.2066H151.973L151.495 55.4454H150.457L150.924 60.2066Z" fill="white"/>
<path d="M153.56 60.2534C153.56 60.7019 153.21 61.0671 152.754 61.0671H149.081V62.0693H152.731C153.769 62.0693 154.609 61.2088 154.609 60.1599V54.6434H153.56V60.2534Z" fill="white"/>
<path d="M157.199 54.6434H156.149V62.0679H157.199V54.6434Z" fill="white"/>
<path d="M164.175 58.1686C164.513 58.1686 164.782 57.8852 164.782 57.5433C164.782 57.2015 164.513 56.9181 164.175 56.9181C163.837 56.9181 163.556 57.2015 163.556 57.5433C163.556 57.8852 163.837 58.1686 164.175 58.1686Z" fill="white"/>
<path d="M166.426 56.8596V61.0321C166.426 62.0927 165.586 62.9532 164.536 62.9532H163.871C162.856 62.9532 162.028 62.1161 162.028 61.0788V58.5207H160.943V61.1489C160.943 62.6931 162.18 63.9539 163.719 63.9539H164.734C166.274 63.9539 167.522 62.6931 167.522 61.1372L167.51 56.8596H166.426Z" fill="white"/>
<path d="M172.981 54.6434V60.2534C172.981 60.7019 172.631 61.0671 172.176 61.0671H168.502V62.0693H172.153C173.191 62.0693 174.031 61.2088 174.031 60.1599V54.6434H172.981Z" fill="white"/>
<path d="M171.336 54.4432H170.286L170.263 54.4315C170.146 54.3848 170.031 54.2197 170.031 54.0313C170.031 53.7727 170.229 53.5711 170.461 53.5711C170.636 53.5711 170.788 53.6777 170.858 53.8296L171.242 53.5827C171.09 53.2643 170.787 53.0758 170.46 53.0758C169.97 53.0758 169.585 53.4995 169.585 54.0181C169.585 54.1598 169.608 54.3015 169.62 54.3249L169.666 54.4432H169.282L169.199 54.9502H171.439L171.333 54.4432H171.336Z" fill="white"/>
<path d="M170.346 60.2066H171.395L170.917 55.4454H169.879L170.346 60.2066Z" fill="white"/>
</g>
<defs>
<clipPath id="clip0_13_71">
<rect width="232" height="69" fill="white"/>
</clipPath>
</defs>
</svg>
