<svg width="27" height="31" viewBox="0 0 27 31" fill="none" xmlns="http://www.w3.org/2000/svg">
<g clip-path="url(#clip0_22_1115)">
<path d="M16.8037 27.4624C16.3218 28.5599 16.0034 29.7509 15.8813 30.9999L26.0774 28.7733C26.5592 27.6761 26.8774 26.4848 26.9997 25.2358L16.8037 27.4624Z" fill="#FF4C00"/>
<path d="M26.0772 22.1028C26.559 21.0056 26.8775 19.8143 26.9995 18.5654L19.0571 20.3007V16.9648L26.077 15.4323C26.5588 14.335 26.8773 13.1438 26.9993 11.8948L19.0569 13.6286V1.63168C17.8399 2.33365 16.759 3.26805 15.8805 4.37023V14.3224L12.704 15.016V0C11.487 0.701725 10.4062 1.63637 9.5276 2.73855V15.7094L2.42032 17.2608C1.93851 18.3581 1.61979 19.5493 1.49754 20.7983L9.5276 19.0453V23.2462L0.921817 25.1249C0.440008 26.2222 0.121525 27.4134 -0.000488281 28.6624L9.00736 26.6959C9.74064 26.5392 10.3709 26.0938 10.7806 25.4809L12.4326 22.965V22.9645C12.6041 22.7041 12.704 22.3903 12.704 22.0523V18.3517L15.8805 17.6581V24.3299L26.077 22.1024L26.0772 22.1028Z" fill="#FF4C00"/>
</g>
<defs>
<clipPath id="clip0_22_1115">
<rect width="27" height="31" fill="white"/>
</clipPath>
</defs>
</svg>
